<svg xmlns="http://www.w3.org/2000/svg" xmlns:xlink="http://www.w3.org/1999/xlink" width="738.336" height="218.985" viewBox="0 0 738.336 218.985"><defs><clipPath id="a"><rect width="146.481" height="146.205" fill="none"/></clipPath></defs><path d="M252.126,73.116A23.891,23.891,0,0,1,266.107,77.5a7.8,7.8,0,0,0,10.054-.627c2.67-2.979,2.356-8-.785-10.193a40.59,40.59,0,0,0-23.25-7.369c-20.739,0-38.646,15.054-38.8,37.947,0,23.208,17.907,38.418,38.8,38.418a39.117,39.117,0,0,0,23.25-7.369c3.141-2.2,3.455-7.214.785-10.192s-6.6-2.824-10.054-.629a23.886,23.886,0,0,1-13.981,4.391c-13.041,0-24.508-9.722-24.822-24.147C227.3,83,238.928,73.116,252.126,73.116Z" fill="#131e29"/><path d="M319.3,59.316c-20.9,0-38.333,14.74-38.333,37.947S298.4,135.681,319.3,135.681s38.486-15.21,38.486-38.418S340.188,59.316,319.3,59.316Zm0,62.566c-13.2,0-24.2-9.722-24.2-24.619,0-14.74,11-23.991,24.2-23.991s24.191,9.251,24.191,23.991C343.486,112.16,332.49,121.882,319.3,121.882Z" fill="#131e29"/><path d="M461.76,60.1a7.167,7.167,0,0,0-7.07,7.212v60.372a7.149,7.149,0,1,0,14.3,0V67.312A7.2,7.2,0,0,0,461.76,60.1Z" fill="#131e29"/><path d="M509.3,60.884H498.927V39.715a7.148,7.148,0,1,0-14.3,0v87.969a7.148,7.148,0,1,0,14.3,0V72.959H509.3a6.038,6.038,0,1,0,0-12.075Z" fill="#131e29"/><path d="M635.555,73.116a23.888,23.888,0,0,1,13.98,4.389,7.8,7.8,0,0,0,10.055-.627c2.67-2.979,2.355-8-.786-10.193a40.589,40.589,0,0,0-23.249-7.369c-20.74,0-38.647,15.054-38.8,37.947,0,23.208,17.907,38.418,38.8,38.418a39.116,39.116,0,0,0,23.249-7.369c3.141-2.2,3.456-7.214.786-10.192s-6.6-2.824-10.055-.629a23.883,23.883,0,0,1-13.98,4.391c-13.041,0-24.509-9.722-24.823-24.147C610.732,83,622.357,73.116,635.555,73.116Z" fill="#131e29"/><path d="M708.642,59.316c-8.012,0-19.794,3.764-24.192,12.544V39.323a7.149,7.149,0,1,0-14.3,0v88.361a7.149,7.149,0,1,0,14.3,0V94.6c0-15.681,12.253-21.326,22.308-21.326s17.281,7.37,17.281,19.445v34.967a7.148,7.148,0,1,0,14.295,0V91.775C738.491,71.233,727.023,59.316,708.642,59.316Z" fill="#131e29"/><path d="M554.312,59.316c-20.894,0-37.544,14.74-37.544,37.947s16.65,38.418,37.544,38.418c11.942,0,22.938-4.389,30.006-13.484,2.2-2.51,1.573-6.744-1.257-8.938-2.827-2.038-6.91-1.1-9.583,1.881-5.026,5.489-9.9,7.684-18.7,7.684-12.41,0-21.993-7.684-23.721-19.915a32,32,0,0,1,0-11.133c1.728-12.232,11.154-19.6,23.25-19.6,11.784,0,20.58,7.369,22.31,19.6H543.131a5.567,5.567,0,1,0,0,11.133H585.1a5.625,5.625,0,0,0,5.657-5.646C590.76,74.056,575.208,59.316,554.312,59.316Z" fill="#131e29"/><path d="M440.72,67.314c0-.187-.029-.357-.042-.535V65.646a7.15,7.15,0,1,0-14.3.166v6.459c-4.888-8.428-15.538-12.955-25.723-12.955-20.109,0-37.23,15.052-37.23,38.419,0,23.206,17.121,37.948,37.23,37.948,10.181,0,21.3-4.836,25.723-13.414l.094,0c0,.04,0,.075,0,.115.012.467.016.963.008,1.484a37.282,37.282,0,0,1-.479,5.372c-1.779,12.6-11.648,20.511-24.429,20.509-9.061,0-14.077-2.259-19.253-7.912-2.753-3.068-6.958-4.037-9.87-1.938-2.914,2.259-3.561,6.621-1.293,9.206,7.278,9.367,18.6,13.887,30.9,13.887,21.517,0,38.665-15.664,38.665-39.567v-5.576h-.012Zm-38.8,54.411c-13.2,0-23.88-9.252-23.88-24.147,0-14.271,10.682-24.307,23.88-24.307,13.038,0,24.349,8.625,24.349,24.307C426.268,113.1,413.7,121.725,401.919,121.725Z" fill="#131e29"/><path d="M461.631,47.042a7.276,7.276,0,1,0-7.227-7.276A7.251,7.251,0,0,0,461.631,47.042Z" fill="#131e29"/><path d="M216.059,187.846v1.574h3.616c1.106,0,1.659.468,1.659,1.446s-.553,1.446-1.659,1.446h-3.616V208.69c0,1.191-.511,1.787-1.574,1.787s-1.574-.6-1.574-1.787V192.312h-2.17c-1.1,0-1.659-.468-1.659-1.446s.554-1.446,1.659-1.446h2.17v-1.574c0-5.148,2.51-7.4,7.317-7.4,1.106,0,1.659.468,1.659,1.446s-.553,1.446-1.617,1.446C217.165,183.336,216.059,184.74,216.059,187.846Z" fill="#131e29"/><path d="M225.762,207.584a11.553,11.553,0,0,1,0-15.484,10.379,10.379,0,0,1,14.974,0,10.8,10.8,0,0,1,3.063,7.742,10.936,10.936,0,0,1-3.021,7.742,10.527,10.527,0,0,1-15.016,0Zm12.719-2.042a8.291,8.291,0,0,0,2.042-5.7,8.112,8.112,0,0,0-2.042-5.658,7.059,7.059,0,0,0-10.422,0,8.107,8.107,0,0,0-2.042,5.658,8.286,8.286,0,0,0,2.042,5.7,7.148,7.148,0,0,0,10.422,0Z" fill="#131e29"/><path d="M251.592,201.373v7.317c0,1.191-.511,1.787-1.574,1.787s-1.574-.6-1.574-1.787V190.951a1.539,1.539,0,0,1,1.531-1.744c1.021,0,1.531.6,1.531,1.744v1.106a8.32,8.32,0,0,1,6.807-2.935l1.531.17c.979.213,1.447.723,1.447,1.574a1.4,1.4,0,0,1-1.787,1.4,7.6,7.6,0,0,0-1.191-.128C253.591,192.142,251.592,194.7,251.592,201.373Z" fill="#131e29"/><path d="M284.517,210.519,276.732,191.5a1.482,1.482,0,0,1,.936-2.212,1.629,1.629,0,0,1,2.17,1.191l6.423,16.25,6.3-16.25a1.629,1.629,0,0,1,2.17-1.191c1.021.383,1.318,1.106.893,2.212l-10.38,25.949a1.629,1.629,0,0,1-2.169,1.192c-1.021-.383-1.319-1.107-.894-2.213Z" fill="#131e29"/><path d="M300.541,207.584a11.553,11.553,0,0,1,0-15.484,10.379,10.379,0,0,1,14.974,0,10.791,10.791,0,0,1,3.063,7.742,10.936,10.936,0,0,1-3.02,7.742,10.529,10.529,0,0,1-15.017,0Zm12.72-2.042a8.29,8.29,0,0,0,2.041-5.7,8.111,8.111,0,0,0-2.041-5.658,7.06,7.06,0,0,0-10.423,0,8.112,8.112,0,0,0-2.042,5.658,8.291,8.291,0,0,0,2.042,5.7,7.15,7.15,0,0,0,10.423,0Z" fill="#131e29"/><path d="M340.3,208.733c0,1.148-.639,1.744-1.532,1.744-.978,0-1.489-.6-1.489-1.744v-1.064a7.847,7.847,0,0,1-6.466,3.063c-5.275,0-7.955-3.276-7.955-9.231V190.994c0-1.191.511-1.787,1.574-1.787s1.574.6,1.574,1.787v10.762c0,3.914,1.872,6,5.232,6,3.957,0,5.914-2.68,5.914-8.04v-8.72c0-1.191.51-1.787,1.574-1.787s1.574.6,1.574,1.787Z" fill="#131e29"/><path d="M349.2,201.373v7.317c0,1.191-.511,1.787-1.574,1.787s-1.574-.6-1.574-1.787V190.951a1.539,1.539,0,0,1,1.531-1.744c1.021,0,1.532.6,1.532,1.744v1.106a8.316,8.316,0,0,1,6.806-2.935l1.531.17c.979.213,1.447.723,1.447,1.574a1.4,1.4,0,0,1-1.787,1.4,7.6,7.6,0,0,0-1.191-.128C351.2,192.142,349.2,194.7,349.2,201.373Z" fill="#131e29"/><path d="M375.061,182.06c0-1.191.511-1.786,1.574-1.786s1.574.6,1.574,1.786v10.125a8.91,8.91,0,0,1,7.019-3.276A8.758,8.758,0,0,1,392.2,192.1a12.371,12.371,0,0,1,0,15.484,8.85,8.85,0,0,1-6.977,3.148,8.988,8.988,0,0,1-7.1-3.318v1.319a1.542,1.542,0,1,1-3.063,0Zm16.633,17.782a8.649,8.649,0,0,0-1.829-5.7,6.063,6.063,0,0,0-4.934-2.255,6.148,6.148,0,0,0-4.978,2.255,9.8,9.8,0,0,0,0,11.4,6.148,6.148,0,0,0,4.978,2.255,6.063,6.063,0,0,0,4.934-2.255A8.649,8.649,0,0,0,391.694,199.842Z" fill="#131e29"/><path d="M416.644,208.733c0,1.148-.638,1.744-1.532,1.744-.978,0-1.489-.6-1.489-1.744v-1.064a7.847,7.847,0,0,1-6.466,3.063c-5.275,0-7.955-3.276-7.955-9.231V190.994c0-1.191.511-1.787,1.574-1.787s1.574.6,1.574,1.787v10.762c0,3.914,1.872,6,5.233,6,3.956,0,5.913-2.68,5.913-8.04v-8.72c0-1.191.51-1.787,1.574-1.787s1.574.6,1.574,1.787Z" fill="#131e29"/><path d="M429.061,191.844c-2.255,0-3.829,1.192-3.829,2.936,0,1.574,1.021,2.6,3.105,3.063l3.276.765c3.956.936,5.913,2.893,5.913,5.871,0,3.7-3.063,6.253-7.785,6.253a10.094,10.094,0,0,1-7.572-2.935c-.723-.808-.765-1.532-.085-2.212a1.4,1.4,0,0,1,2.212.042,7.454,7.454,0,0,0,5.4,2.212c2.935,0,4.679-1.191,4.679-3.19,0-1.489-1.106-2.51-3.275-3.02L428,200.9c-3.956-.935-5.913-2.935-5.913-6a5.194,5.194,0,0,1,2.127-4.381,8.182,8.182,0,0,1,5.062-1.617,9.022,9.022,0,0,1,6.339,2.382c.851.809.936,1.574.212,2.34-.638.681-1.4.638-2.382-.17A6.646,6.646,0,0,0,429.061,191.844Z" fill="#131e29"/><path d="M441.49,180.869a2.443,2.443,0,0,1,3.361,0,2.291,2.291,0,0,1,0,3.361,2.377,2.377,0,1,1-3.361-3.361Zm3.276,27.821c0,1.191-.511,1.787-1.574,1.787s-1.574-.6-1.574-1.787V190.951a1.548,1.548,0,0,1,1.574-1.744c1.063,0,1.574.6,1.574,1.744Z" fill="#131e29"/><path d="M450.619,190.951a1.539,1.539,0,0,1,1.531-1.744c1.021,0,1.532.6,1.532,1.744v1.021a8.551,8.551,0,0,1,6.593-3.063c5.318,0,8.3,3.318,8.3,9.231v10.55a1.592,1.592,0,0,1-1.617,1.787c-1.064,0-1.574-.6-1.574-1.787V197.885c0-3.871-1.957-6.041-5.317-6.041-4.084,0-6.3,3.106-6.3,8.083v8.763c0,1.191-.511,1.787-1.574,1.787s-1.574-.6-1.574-1.787Z" fill="#131e29"/><path d="M489.478,200.82h-13.4c.3,4.382,2.936,6.977,7.02,6.977a6.946,6.946,0,0,0,5.062-2.127,1.438,1.438,0,0,1,2.3-.085,1.485,1.485,0,0,1-.213,2.254,9.994,9.994,0,0,1-7.146,2.893,9.774,9.774,0,0,1-7.488-2.978,11.1,11.1,0,0,1-2.765-7.784,11.737,11.737,0,0,1,2.765-7.828,8.9,8.9,0,0,1,7.062-3.233c6.466,0,8.976,5.275,8.976,9.955C491.648,200.182,490.925,200.82,489.478,200.82Zm-13.272-2.807h12.251c-.042-3.7-2.254-6.126-5.7-6.126C479.184,191.887,476.717,194.439,476.206,198.013Z" fill="#131e29"/><path d="M502.887,191.844c-2.255,0-3.829,1.192-3.829,2.936,0,1.574,1.021,2.6,3.1,3.063l3.276.765c3.956.936,5.913,2.893,5.913,5.871,0,3.7-3.063,6.253-7.785,6.253a10.094,10.094,0,0,1-7.572-2.935c-.723-.808-.765-1.532-.085-2.212a1.4,1.4,0,0,1,2.212.042,7.454,7.454,0,0,0,5.4,2.212c2.935,0,4.679-1.191,4.679-3.19,0-1.489-1.106-2.51-3.275-3.02l-3.106-.724c-3.956-.935-5.913-2.935-5.913-6a5.194,5.194,0,0,1,2.127-4.381,8.182,8.182,0,0,1,5.062-1.617,9.022,9.022,0,0,1,6.339,2.382c.851.809.936,1.574.212,2.34-.638.681-1.4.638-2.382-.17A6.646,6.646,0,0,0,502.887,191.844Z" fill="#131e29"/><path d="M522.182,191.844c-2.255,0-3.829,1.192-3.829,2.936,0,1.574,1.021,2.6,3.106,3.063l3.275.765c3.957.936,5.913,2.893,5.913,5.871,0,3.7-3.062,6.253-7.784,6.253a10.092,10.092,0,0,1-7.572-2.935c-.724-.808-.766-1.532-.086-2.212a1.4,1.4,0,0,1,2.213.042,7.452,7.452,0,0,0,5.4,2.212c2.935,0,4.68-1.191,4.68-3.19,0-1.489-1.107-2.51-3.276-3.02l-3.1-.724c-3.957-.935-5.914-2.935-5.914-6a5.2,5.2,0,0,1,2.128-4.381,8.178,8.178,0,0,1,5.062-1.617,9.018,9.018,0,0,1,6.338,2.382c.851.809.936,1.574.213,2.34-.638.681-1.4.638-2.382-.17A6.648,6.648,0,0,0,522.182,191.844Z" fill="#131e29"/><path d="M556.979,191.887a6.837,6.837,0,0,0-5.275,2.3,7.95,7.95,0,0,0-2.084,5.658c0,4.637,2.85,7.955,7.487,7.955a6.944,6.944,0,0,0,5.062-2.127,1.438,1.438,0,0,1,2.3-.085,1.485,1.485,0,0,1-.212,2.254,10.308,10.308,0,0,1-7.4,2.893,9.985,9.985,0,0,1-7.487-3.148,10.9,10.9,0,0,1-2.978-7.742,10.694,10.694,0,0,1,3.063-7.7,10.046,10.046,0,0,1,7.529-3.233,9.3,9.3,0,0,1,6.849,2.638,1.485,1.485,0,0,1,.213,2.254c-.638.638-1.4.638-2.3-.085A7.137,7.137,0,0,0,556.979,191.887Z" fill="#131e29"/><path d="M569.12,181.975a1.547,1.547,0,0,1,1.574-1.744c1.063,0,1.574.6,1.574,1.744v10a8.373,8.373,0,0,1,6.508-3.063c5.318,0,8.3,3.318,8.3,9.231v10.55a1.592,1.592,0,0,1-1.617,1.787c-1.064,0-1.574-.6-1.574-1.787V197.885c0-3.871-1.957-6.041-5.318-6.041-4.083,0-6.295,3.106-6.295,8.083v8.763c0,1.191-.511,1.787-1.574,1.787s-1.574-.6-1.574-1.787Z" fill="#131e29"/><path d="M592.487,194.312c-.639-.553-.681-1.362.042-2.212a10.351,10.351,0,0,1,7.189-3.191c4.977,0,7.955,2.893,7.955,8.168v11.656a1.542,1.542,0,1,1-3.063,0v-.809a9.175,9.175,0,0,1-6.678,2.808c-3.914,0-6.807-2.34-6.807-6.126,0-3.7,3.106-6.04,7.7-6.551l5.7-.68v-.638c0-3.191-1.829-4.893-4.849-4.893a7.333,7.333,0,0,0-5.02,2.213Q593.444,195.141,592.487,194.312Zm5.615,13.612a8.033,8.033,0,0,0,6.423-3.318v-4.3l-5.53.68q-4.722.574-4.722,3.7C594.273,206.606,595.762,207.924,598.1,207.924Z" fill="#131e29"/><path d="M616.406,208.69c0,1.191-.51,1.787-1.574,1.787s-1.574-.6-1.574-1.787V182.018a1.547,1.547,0,0,1,1.574-1.744c1.064,0,1.574.6,1.574,1.744Z" fill="#131e29"/><path d="M625.267,208.69c0,1.191-.51,1.787-1.574,1.787s-1.574-.6-1.574-1.787V182.018a1.547,1.547,0,0,1,1.574-1.744c1.064,0,1.574.6,1.574,1.744Z" fill="#131e29"/><path d="M646.575,200.82h-13.4c.3,4.382,2.935,6.977,7.019,6.977a6.946,6.946,0,0,0,5.062-2.127,1.438,1.438,0,0,1,2.3-.085,1.485,1.485,0,0,1-.213,2.254,9.992,9.992,0,0,1-7.146,2.893,9.772,9.772,0,0,1-7.487-2.978,11.09,11.09,0,0,1-2.765-7.784,11.732,11.732,0,0,1,2.765-7.828,8.9,8.9,0,0,1,7.061-3.233c6.466,0,8.976,5.275,8.976,9.955C648.744,200.182,648.021,200.82,646.575,200.82ZM633.3,198.013h12.252c-.043-3.7-2.255-6.126-5.7-6.126C636.28,191.887,633.813,194.439,633.3,198.013Z" fill="#131e29"/><path d="M653.466,190.951A1.539,1.539,0,0,1,655,189.207c1.021,0,1.532.6,1.532,1.744v1.021a8.553,8.553,0,0,1,6.593-3.063c5.318,0,8.3,3.318,8.3,9.231v10.55a1.592,1.592,0,0,1-1.617,1.787c-1.064,0-1.574-.6-1.574-1.787V197.885c0-3.871-1.957-6.041-5.317-6.041-4.084,0-6.3,3.106-6.3,8.083v8.763c0,1.191-.511,1.787-1.574,1.787s-1.574-.6-1.574-1.787Z" fill="#131e29"/><path d="M677.135,213.072c.765-.638,1.531-.553,2.3.34a7.022,7.022,0,0,0,5.53,2.68c4.466,0,6.891-2.893,6.891-7.274v-2.17a8.007,8.007,0,0,1-6.806,3.148,8.7,8.7,0,0,1-6.721-2.978,11.6,11.6,0,0,1,0-14.931,8.7,8.7,0,0,1,6.721-2.978,8.252,8.252,0,0,1,6.891,3.191v-1.191a1.546,1.546,0,1,1,3.063,0v17.654c0,6.338-3.871,10.422-10.039,10.422a9.507,9.507,0,0,1-7.912-3.616C676.326,214.476,676.369,213.71,677.135,213.072Zm3.53-8.338a5.9,5.9,0,0,0,4.68,2.084,5.988,5.988,0,0,0,4.722-2.084,8.675,8.675,0,0,0,0-10.763,5.991,5.991,0,0,0-4.722-2.084,5.9,5.9,0,0,0-4.68,2.084,8.832,8.832,0,0,0,0,10.763Z" fill="#131e29"/><path d="M716.356,200.82h-13.4c.3,4.382,2.935,6.977,7.019,6.977a6.944,6.944,0,0,0,5.062-2.127,1.439,1.439,0,0,1,2.3-.085,1.485,1.485,0,0,1-.213,2.254,10,10,0,0,1-7.147,2.893,9.774,9.774,0,0,1-7.487-2.978,11.1,11.1,0,0,1-2.765-7.784,11.737,11.737,0,0,1,2.765-7.828,8.9,8.9,0,0,1,7.062-3.233c6.466,0,8.976,5.275,8.976,9.955C718.526,200.182,717.8,200.82,716.356,200.82Zm-13.272-2.807h12.251c-.042-3.7-2.254-6.126-5.7-6.126C706.062,191.887,703.594,194.439,703.084,198.013Z" fill="#131e29"/><path d="M729.765,191.844c-2.255,0-3.829,1.192-3.829,2.936,0,1.574,1.021,2.6,3.105,3.063l3.276.765c3.956.936,5.913,2.893,5.913,5.871,0,3.7-3.063,6.253-7.785,6.253a10.092,10.092,0,0,1-7.572-2.935c-.723-.808-.766-1.532-.085-2.212a1.4,1.4,0,0,1,2.212.042,7.454,7.454,0,0,0,5.4,2.212c2.935,0,4.679-1.191,4.679-3.19,0-1.489-1.106-2.51-3.276-3.02L728.7,200.9c-3.956-.935-5.913-2.935-5.913-6a5.194,5.194,0,0,1,2.127-4.381,8.18,8.18,0,0,1,5.062-1.617,9.022,9.022,0,0,1,6.339,2.382c.85.809.935,1.574.212,2.34-.638.681-1.4.638-2.382-.17A6.646,6.646,0,0,0,729.765,191.844Z" fill="#131e29"/><g clip-path="url(#a)"><g clip-path="url(#a)"><path d="M47.876,101.775l-.023.039c.007-.014.016-.027.024-.041.138-.238.28-.473.425-.707s.3-.48.459-.716A29.472,29.472,0,0,1,73.375,87.114l17.636.005,25.559.009a14.067,14.067,0,1,0,.009-28.134l-29.216-.01-13.921,0a29.5,29.5,0,0,1-25.505-14.7L26.47,7.163C22.823.858,14.386-1.874,7.861,1.38A14.054,14.054,0,0,0,1.933,21.008l21.551,37.26a29.359,29.359,0,0,1,0,29.411L1.888,125A13.981,13.981,0,0,0,0,131.737c0,.1,0,.2,0,.306s0,.211,0,.316A14.1,14.1,0,0,0,26.3,139.071l21.557-37.257.023-.039m.426-.709c.15-.242.3-.48.459-.716q-.234.354-.459.716" fill="#8f02ff"/><path d="M139.436,119.956l-37.35-21.541a29.393,29.393,0,0,1-8.931-7.958H91.01L73.365,90.45a26.206,26.206,0,0,0-22.624,13.035L30.165,139.044l28.3-16.305a29.51,29.51,0,0,1,29.467.007l37.4,21.57a14.073,14.073,0,1,0,14.1-24.36" fill="#131e29"/><path d="M73.443,55.643l13.92,0V30.1c0-7.281-5.938-13.858-13.219-14.3a14.082,14.082,0,0,0-14.966,14.04V51.4q.787.513,1.614.972a26.222,26.222,0,0,0,12.651,3.269" fill="#131e29"/></g></g></svg>